HIERARCHY
ROOT Hips
{
    OFFSET 0.0 0.0 0.0
    CHANNELS 6 Xposition Yposition Zposition Zrotation Xrotation Yrotation
    JOINT LeftHipJoint
    {
        OFFSET 0.1 0.0 0.0
        CHANNELS 3 Zrotation Xrotation Yrotation
        JOINT LeftUpLeg
        {
            OFFSET 127.8027545584833 0.0 0.0
            CHANNELS 3 Zrotation Xrotation Yrotation
            JOINT LeftLeg
            {
                OFFSET 0.0 0.0 -430.31205195255734
                CHANNELS 3 Zrotation Xrotation Yrotation
                JOINT LeftFoot
                {
                    OFFSET 0.0 0.0 -400.2605155522834
                    CHANNELS 3 Zrotation Xrotation Yrotation
                    End Site
                    {
                        OFFSET 0.0 -0.1 0.0
                    }
                }
            }
        }
    }
    JOINT LowerBack
    {
        OFFSET 0.0 0.0 0.1
        CHANNELS 3 Zrotation Xrotation Yrotation
        JOINT Spine
        {
            OFFSET 0.0 0.0 230.26012866524854
            CHANNELS 3 Zrotation Xrotation Yrotation
            JOINT Spine1
            {
                OFFSET 0.0 0.0 252.54812259955926
                CHANNELS 3 Zrotation Xrotation Yrotation
                JOINT LeftShoulder
                {
                    OFFSET 0.1 0.0 0.0
                    CHANNELS 3 Zrotation Xrotation Yrotation
                    JOINT LeftArm
                    {
                        OFFSET 150.3437694162612 0.0 0.0
                        CHANNELS 3 Zrotation Xrotation Yrotation
                        JOINT LeftForeArm
                        {
                            OFFSET 279.1022571327061 0.0 0.0
                            CHANNELS 3 Zrotation Xrotation Yrotation
                            JOINT LeftHand
                            {
                                OFFSET 250.4022888976314 0.0 0.0
                                CHANNELS 3 Zrotation Xrotation Yrotation
                                End Site
                                {
                                    OFFSET 0.1 0.0 0.0
                                }
                            }
                        }
                    }
                }
                JOINT Neck
                {
                    OFFSET 0.0 0.0 0.1
                    CHANNELS 3 Zrotation Xrotation Yrotation
                    JOINT Neck1
                    {
                        OFFSET 0.0 0.0 108.23093601384151
                        CHANNELS 3 Zrotation Xrotation Yrotation
                        End Site
                        {
                            OFFSET 0.0 0.0 111.02356808076817
                        }
                    }
                }
                JOINT RightShoulder
                {
                    OFFSET -0.1 0.0 0.0
                    CHANNELS 3 Zrotation Xrotation Yrotation
                    JOINT RightArm
                    {
                        OFFSET -150.3437694162612 0.0 0.0
                        CHANNELS 3 Zrotation Xrotation Yrotation
                        JOINT RightForeArm
                        {
                            OFFSET -279.1022571327061 0.0 0.0
                            CHANNELS 3 Zrotation Xrotation Yrotation
                            JOINT RightHand
                            {
                                OFFSET -250.4022888976314 0.0 0.0
                                CHANNELS 3 Zrotation Xrotation Yrotation
                                End Site
                                {
                                    OFFSET -0.1 0.0 0.0
                                }
                            }
                        }
                    }
                }
            }
        }
    }
    JOINT RightHipJoint
    {
        OFFSET -0.1 0.0 0.0
        CHANNELS 3 Zrotation Xrotation Yrotation
        JOINT RightUpLeg
        {
            OFFSET -127.8027545584833 0.0 0.0
            CHANNELS 3 Zrotation Xrotation Yrotation
            JOINT RightLeg
            {
                OFFSET 0.0 0.0 -430.31205195255734
                CHANNELS 3 Zrotation Xrotation Yrotation
                JOINT RightFoot
                {
                    OFFSET 0.0 0.0 -400.2605155522834
                    CHANNELS 3 Zrotation Xrotation Yrotation
                    End Site
                    {
                        OFFSET 0.0 -0.1 0.0
                    }
                }
            }
        }
    }
}
MOTION
Frames: 7
Frame Time: 0.03333333333333333
0.0 0.0 837.3584376970294 28.635719942533157 -20.597794290828894 8.53078866669186 0.0 0.0 0.0 0.3953160161412224 9.326426214584805 -3.0525673680974514 -0.24430381212249774 21.402100206758725 -5.162434800127135 0.0 0.0 0.0 0.0 0.0 0.0 0.42968128392989036 10.147203795554121 -2.3767997731967547 -3.2572817548631674 3.4005730955770906e-15 -6.987721823454672e-16 0.0 0.0 0.0 -87.0010642971408 13.777979575941636 52.7416396274433 -108.77365789015724 1.6632565510105746e-14 -4.088970398969165e-15 0.0 0.0 0.0 0.0 0.0 0.0 -6.924607059336112 -2.477145666213766 -7.741583030294771 0.0 0.0 0.0 14.928466961309395 -40.53803504345274 -66.6784013487119 143.2625257910834 -2.0045843121050232e-15 6.036998762860599e-15 0.0 0.0 0.0 0.0 0.0 0.0 0.635570407031761 14.846256501385986 -8.154860532601635 -1.554796787727477 15.283986213742267 5.353856481655468 -1.6552148617688095e-32 -1.5902773407317584e-15 -1.1927080055488188e-15
0.0 0.0 837.3584376970294 28.61029831209486 -20.560462615056995 8.609750425774507 0.0 3.1805546814635168e-15 0.0 0.40006878593155715 9.127094848446912 -3.157313592719997 -0.2554974464415127 21.570522603361717 -5.304964609475036 0.0 0.0 7.951386703658791e-16 0.0 3.1805546814635168e-15 0.0 0.44576087547534915 10.177654477557686 -2.379155320425229 -3.253151372378782 -2.7163670365409263e-15 1.1160528508774022e-15 0.0 0.0 -3.975693351829396e-16 -86.9533035358557 13.788023535808815 52.6769436682037 -108.660241484603 -5.167702817566348e-15 3.709253282863656e-15 0.0 0.0 1.5902773407317584e-15 0.0 0.0 -3.975693351829396e-16 -6.991676879398398 -2.602088259376706 -7.795362617566308 0.0 0.0 -3.975693351829396e-16 15.123393962534468 -40.42926763360488 -66.56391252076779 143.3192718149725 -7.055391516888284e-15 -9.040382492270678e-15 0.0 0.0 0.0 0.0 3.1805546814635168e-15 0.0 0.6581687611593718 14.86584256776423 -8.357839265351721 -1.569274622551922 15.11809842976677 5.272637678003383 0.0 0.0 0.0
0.0 0.0 837.3584376970294 28.520381112132622 -20.560938244502726 8.645319775165238 0.0 0.0 7.951386703658791e-16 0.39883600571969 8.974367778741822 -3.257852342548069 -0.279689728944989 21.432256253747475 -5.414744269253366 0.0 0.0 -3.975693351829396e-16 0.0 0.0 7.951386703658791e-16 0.454418544595755 10.229855020453957 -2.348473983862876 -3.230482669001967 -1.192234085643241e-15 -3.361951116043417e-17 0.0 0.0 0.0 -86.82787912447192 13.899518234425221 52.69294289188017 -108.64710771842068 -6.293484374335323e-15 -3.3123548781636606e-15 0.0 0.0 -1.5902773407317584e-15 0.0 0.0 0.0 -6.976251984847155 -2.657413534785205 -7.901849921831976 0.0 0.0 0.0 15.41234115830521 -40.270057657227234 -66.34086923999283 143.32165117662913 -9.839221860834484e-16 1.307679909312612e-14 0.0 0.0 0.0 0.0 0.0 7.951386703658791e-16 0.6668346826517036 14.85271346698906 -8.511553578734656 -1.5650774667276142 14.790327094043977 5.233253623366912 0.0 0.0 7.951386703658792e-16
0.0 0.0 837.3584376970294 28.467885475618335 -20.45003468133892 8.776700366633545 0.0 0.0 0.0 0.40063269588836425 8.710303752209862 -3.482667484942474 -0.3351657374633422 21.538364920126494 -5.537527178347927 0.0 0.0 3.975693351829396e-16 0.0 0.0 0.0 0.4689971893365056 10.197738265258703 -2.410049021677298 -3.2215243497996786 1.3909428286153818e-15 3.911402467845253e-17 0.0 0.0 0.0 -86.66082835896866 13.911398285699843 52.715050960884405 -108.55393168574668 1.131916200565608e-15 7.021282370322005e-15 0.0 0.0 0.0 0.0 0.0 0.0 -7.084157497995527 -2.8769511358654603 -8.114909581768773 0.0 0.0 0.0 15.74712945716898 -40.175440613652334 -66.04893727633636 143.3338110128019 -5.019950726924011e-15 5.0378303969221274e-15 0.0 0.0 0.0 0.0 0.0 0.0 0.6878864344757913 14.799811207122834 -8.840498848465092 -1.598288927248641 14.527596065363886 5.273999148722267 0.0 0.0 7.951386703658792e-16
0.0 0.0 837.3584376970294 28.43426398529799 -20.335197209690882 8.806048462150116 0.0 0.0 0.0 0.3945799716171989 8.500069577821742 -3.5716453471654774 -0.3623413108244006 21.61388122650482 -5.614245838121964 0.0 0.0 0.0 0.0 0.0 0.0 0.4729687052186236 10.186940713703834 -2.3511894121467485 -3.2137712442656317 -8.94179231892159e-16 -2.508423128449902e-17 3.1805546814635164e-15 0.0 0.0 -86.6440398260613 13.905462098793782 52.66734934194814 -108.52295536509958 -2.581627624363086e-15 1.8577208861680225e-15 0.0 0.0 0.0 3.1805546814635164e-15 0.0 0.0 -7.1313091445553045 -3.0655136076671967 -8.273515030300725 3.1805546814635164e-15 0.0 0.0 16.195229432142963 -40.1293726043499 -65.74664203578713 143.24202009538712 1.012655400478873e-15 7.039472242205265e-15 0.0 0.0 0.0 0.0 0.0 0.0 0.689193382112782 14.69241133897078 -8.961986565521883 -1.6211956728822874 14.50567424971934 5.182431760447066 0.0 0.0 3.975693351829396e-16
0.0 0.0 837.3584376970294 28.507437736769027 -20.287559892862117 8.891993433998403 0.0 0.0 0.0 0.40068477281655657 8.308386606331496 -3.743886126049043 -0.38893187819514863 21.56613260153883 -5.784957483032031 0.0 -4.9696166897867443e-17 0.0 0.0 0.0 0.0 0.49181860775894515 10.193100022733235 -2.297859453000213 -3.238065582777711 2.9805796457883194e-15 8.424601319283044e-17 0.0 0.0 0.0 -86.59688858682026 13.919406517612998 52.61368617353667 -108.39522736323669 1.4039415964736272e-14 -2.2832785648488343e-15 0.0 0.0 0.0 0.0 0.0 0.0 -7.256423398692067 -3.1437739133461404 -8.320273347359619 0.0 0.0 0.0 16.58278443857022 -39.94047102919873 -65.48910689599862 143.3099372821825 -2.0020863727408353e-15 6.037827629471001e-15 0.0 0.0 0.0 0.0 0.0 0.0 0.7158442637200632 14.684766086129303 -9.215420302339515 -1.6550662532964555 14.46669087097838 5.303731999236415 0.0 0.0 3.975693351829396e-16
0.0 0.0 837.3584376970294 28.59009119647378 -20.213033715347407 8.973419783158333 0.0 0.0 0.0 0.40425729107020336 8.137964181582396 -3.9400029815958972 -0.4305161229752021 21.42092547646392 -5.830806417646648 0.0 0.0 0.0 0.0 0.0 0.0 0.5090534735157818 10.237257491025927 -2.2537966855889757 -3.288886956457778 1.6010314467401714e-15 -3.5176938933305524e-16 0.0 1.6896696745274934e-15 0.0 -86.4666689534402 13.986819080530966 52.545723024208876 -108.35705095420187 2.5789353315743775e-15 -1.8614565902370246e-15 0.0 0.0 0.0 0.0 1.6896696745274934e-15 0.0 -7.320106073626887 -3.262355090344733 -8.379492449694785 0.0 1.6896696745274934e-15 0.0 17.15518916011764 -39.72100692061987 -65.13470266672408 143.34518759007724 3.019221609762838e-15 1.0001144699086173e-15 0.0 0.0 0.0 0.0 0.0 0.0 0.7305927129060722 14.548670284328074 -9.436372397635987 -1.6922200075357516 14.47823555616635 5.408085398020741 0.0 0.0 -3.975693351829396e-16
